<svg xmlns="http://www.w3.org/2000/svg" viewBox="0 0 65 40">
    <path fill="#EB0028"
        d="M9.345 12.49c-.02.138-.037.218-.042.3-.08 1.23-.699 2.117-1.755 2.708-1.025.573-2.143.748-3.303.681-.778-.045-1.532-.215-2.235-.568C.987 15.098.271 14.332.055 13.172a3.044 3.044 0 01-.048-.545 414.31 414.31 0 01-.002-4.391c.001-.187.045-.404.147-.553.281-.407 1.447-.402 1.715.01.106.163.143.395.145.596.013 1.28.006 2.561.007 3.842.001 1.023.393 1.559 1.38 1.848a4.471 4.471 0 002.54-.006 2.47 2.47 0 00.505-.208c.549-.303.844-.758.842-1.403-.007-1.985-.003-3.97-.002-5.954 0-.86.187-1.048 1.035-1.047.07 0 .14-.002.21.001.536.022.767.252.776.787.007.394.002.788.002 1.182 0 .886-.001 1.773.001 2.66 0 .15.015.301.024.472h30.411c.009-.188.023-.353.023-.518.002-1.224-.002-2.449.005-3.673 0-.18.006-.379.082-.533.216-.442.644-.373 1.036-.379.34-.006.665.043.817.392.07.16.082.355.083.534.007 1.225.004 2.45.004 3.674v.447c.33.097 1.568.12 2.215.044.009-.138.026-.285.026-.433.003-1.21.002-2.42.002-3.631 0-.113-.006-.226.006-.338.04-.406.27-.644.675-.68a4.18 4.18 0 01.633-.004c.456.028.686.265.717.722.008.112.004.225.004.338v4.061c.647-.003 1.245.032 1.844-.025.238-.023.37-.191.397-.427.015-.126.013-.253.013-.38 0-1.14-.002-2.28.001-3.42.002-.632.233-.862.866-.873.14-.002.282-.006.422.003.48.03.72.268.732.746.012.479.004.957.004 1.436v2.027c-.004 1.61-.826 2.58-2.423 2.83a7.96 7.96 0 01-1.218.083c-12.259.004-24.518.003-36.776.003h-.588z" />
    <path fill="#02429A"
        d="M2.101 28.702c.105.017.159.034.213.034.899 0 1.799.021 2.697-.015a2.943 2.943 0 001.012-.251c.594-.255.879-.757.84-1.376-.039-.638-.398-1.046-.982-1.232a4.058 4.058 0 00-1.074-.18c-.771-.027-1.545-.01-2.318-.008-.122 0-.243.02-.388.034v2.994zm4.913 1.208c.452.891.97 1.677 1.554 2.417 1.662 2.105 3.745 3.679 6.144 4.847 2.373 1.156 4.88 1.853 7.504 2.139 1.037.113 2.075.167 3.117.138.112-.003.242-.027.332.02.097.05.214.17.216.264.003.091-.108.227-.203.27-.136.06-.3.065-.455.077-5.316.405-10.306-.593-14.827-3.518a15.92 15.92 0 01-5.332-5.713c-.15-.271-.329-.371-.633-.362-.618.02-1.238.004-1.857.007-.15.001-.3.017-.499.03v.492c0 .662.015 1.323-.008 1.984-.008.213-.064.46-.186.626-.264.361-1.43.34-1.706-.01-.081-.104-.121-.249-.152-.381-.025-.108-.009-.224-.009-.337v-7.978c0-.113-.005-.226.006-.338.03-.314.204-.518.508-.593.095-.023.195-.038.292-.037 1.59.014 3.18.015 4.768.055.667.017 1.294.234 1.886.552 1.919 1.032 1.967 3.901.118 5.013-.179.107-.36.209-.578.336z" />
    <path fill="#EB0028"
        d="M58.67 7.411c-.091-.017-.157-.042-.223-.042-.772-.002-1.545-.018-2.316.01a3.53 3.53 0 00-.942.187 1.23 1.23 0 00-.788.767c-.36.951.115 1.842 1.105 2.07.11.026.22.059.331.06.911.007 1.823.007 2.734.007.023 0 .047-.025.099-.054V7.41zm-.017 5.078c-.235 0-.444.005-.653 0-.87-.023-1.746-.007-2.612-.09-.479-.045-.963-.208-1.408-.403-.864-.379-1.398-1.063-1.623-1.983a4.487 4.487 0 010-2.172c.232-.936.793-1.598 1.66-2.01.701-.334 1.45-.45 2.215-.46 1.224-.018 2.448-.015 3.672-.007.576.004.815.256.816.837.003 2.14.013 4.278-.004 6.417-.01 1.4-.666 2.416-1.944 3.003-1.125.517-2.324.641-3.545.617a5.227 5.227 0 01-.92-.094c-.356-.071-.47-.233-.491-.585a2.229 2.229 0 01-.003-.168c.011-.84.344-1.144 1.187-1.07.765.068 1.524.035 2.254-.204.341-.111.676-.285.967-.494.371-.267.478-.611.432-1.134zM57.407 27.35v5.55c0 .14.003.284-.023.42a.638.638 0 01-.611.545 6.24 6.24 0 01-.843 0c-.34-.026-.562-.26-.601-.601-.013-.111-.009-.225-.009-.337l.001-7.767c0-.154-.007-.314.03-.461a.92.92 0 01.67-.694c.521-.15 1.006-.08 1.408.315.13.128.252.266.37.405l4.59 5.46c.095.113.195.222.293.333l.091-.033v-5.51c0-.112-.004-.225.003-.337.026-.386.242-.644.618-.684.278-.03.564-.03.842-.002.379.039.596.295.623.679.005.07.002.14.002.21 0 2.632-.004 5.263.004 7.894.001.486-.152.874-.618 1.046-.48.176-.973.17-1.393-.186a4.071 4.071 0 01-.465-.486c-1.532-1.818-3.061-3.64-4.592-5.458-.095-.113-.199-.219-.299-.328l-.09.028M15.965 32.22c.292-.038.588-.06.876-.118 1.406-.287 2.43-1.343 2.62-2.692a3.162 3.162 0 00-1.722-3.293c-1.255-.64-2.535-.629-3.757.076-2.05 1.184-2.115 4.085-.139 5.391.641.424 1.355.607 2.122.637m-.056 1.653c-1.206-.002-2.344-.267-3.38-.902-2.789-1.713-3.086-5.495-.59-7.615 1.264-1.075 2.76-1.473 4.393-1.402 1.026.044 1.999.304 2.893.824 2.08 1.21 2.962 3.595 2.136 5.776-.333.88-.897 1.586-1.65 2.144-1.052.78-2.343 1.177-3.802 1.175m18.923-5.845c1.68-.008 3.302.016 4.963-.018v-.554c0-.886.02-1.773-.007-2.66-.017-.552.312-.885.843-.861.197.008.396-.01.59.01.4.042.63.293.659.695.005.07.002.14.002.211v8.105c0 .099.006.198-.007.295-.047.369-.298.599-.682.618-.224.011-.45.01-.675.002-.471-.018-.716-.265-.72-.749-.008-.928-.003-1.857-.003-2.786v-.446c-.33-.1-4.405-.124-4.94-.034-.008.143-.022.294-.022.446-.002.858 0 1.716-.002 2.575 0 .126.004.254-.01.38-.043.363-.27.587-.636.61a6.728 6.728 0 01-.76.001c-.406-.021-.635-.258-.666-.67-.008-.099-.004-.197-.004-.296v-7.979c0-.098-.003-.197.004-.295.031-.408.254-.646.663-.684.21-.02.422-.014.633-.006.525.02.768.26.774.792.009.915.003 1.83.003 2.744v.554" />
    <path fill="#02429A"
        d="M64.85 9.483c0 .928-.014 1.857.003 2.786.031 1.816-.638 3.345-1.876 4.644-1.085 1.138-2.398 1.944-3.817 2.592-1.932.883-3.967 1.418-6.056 1.759-2.017.329-4.05.466-6.094.42a28.945 28.945 0 01-3.737-.336 1.076 1.076 0 01-.124-.025c-.169-.047-.276-.146-.247-.334.029-.182.154-.269.33-.258.336.02.672.054 1.008.082a27.95 27.95 0 004.258.004 27.488 27.488 0 004.947-.797c1.86-.477 3.65-1.138 5.312-2.114 1.123-.66 2.153-1.435 2.967-2.469.757-.96 1.155-2.034 1.137-3.275-.026-1.913-.007-3.827-.007-5.74 0-.127-.005-.254.004-.38.027-.377.231-.606.6-.638.252-.022.508-.022.76-.002.383.03.606.27.627.662.015.28.005.562.005.844v2.575" />
    <path fill="#EB0028"
        d="M50.375 29.795l-1.65-3.42c-.376.541-1.586 3.122-1.613 3.42h3.263zm2.757 4.079c-.59.147-.95-.204-1.182-.806-.156-.406-.383-.784-.56-1.182-.092-.205-.21-.297-.447-.295-1.491.01-2.983.009-4.475 0-.227 0-.36.068-.456.281-.225.5-.482.986-.71 1.484-.165.363-.42.545-.826.52-.253-.015-.507.005-.76-.005-.313-.013-.48-.16-.46-.475.016-.23.09-.469.194-.677 1.045-2.104 2.1-4.202 3.154-6.302.29-.578.57-1.163.874-1.733.332-.619.936-.865 1.608-.688.377.1.647.335.826.673.184.348.356.702.532 1.055 1.167 2.325 2.335 4.65 3.497 6.98.092.185.167.389.199.592.048.32-.114.622-.529.58-.125-.013-.253-.002-.479-.002zM27.09 33.86c-1.38.008-2.678-.3-3.861-1.03-.59-.363-.648-.628-.272-1.199.36-.546.809-.649 1.37-.278.717.475 1.484.816 2.344.88a5.3 5.3 0 001.257-.054c.265-.044.54-.179.755-.345.499-.387.462-1.1-.08-1.424-.32-.19-.689-.32-1.05-.422-.677-.19-1.37-.322-2.046-.516a6.996 6.996 0 01-1.174-.464c-1.748-.868-1.554-3.082-.554-4.015.601-.561 1.315-.867 2.11-.978 1.525-.212 2.971.04 4.322.795.463.26.566.558.358 1.053-.325.774-.565.867-1.323.479-.68-.349-1.373-.651-2.148-.715-.411-.034-.819-.018-1.206.13a1.67 1.67 0 00-.507.291c-.418.369-.392.996.063 1.314.227.158.493.28.758.357.649.186 1.314.314 1.96.508.536.16 1.076.337 1.577.583 1.91.936 1.66 3.458.177 4.378-.677.42-1.416.609-2.197.67-.21.017-.422.003-.633.003M3.968 3.428a1.008 1.008 0 011.028-1.005.993.993 0 01.986 1c-.003.544-.452 1.009-.983 1.017a1.032 1.032 0 01-1.03-1.012M46.38 2.423a.994.994 0 011.019.966 1.03 1.03 0 01-.99 1.052c-.54.015-1.027-.47-1.027-1.02 0-.536.457-.993.998-.998m-2.671 0a1.02 1.02 0 011.026.968c.018.538-.46 1.04-1 1.05-.55.01-1.013-.459-1.012-1.024 0-.556.428-.987.986-.994M44.99 0a1.02 1.02 0 011.025.969c.019.538-.46 1.04-1 1.05-.55.01-1.012-.46-1.012-1.025A.982.982 0 0144.989 0" />
</svg>
